<?xml version="1.0" encoding="utf-8"?>
<!-- Generator: Adobe Illustrator 24.3.0, SVG Export Plug-In . SVG Version: 6.00 Build 0)  -->
<svg version="1.1" id="Capa_1" xmlns="http://www.w3.org/2000/svg" xmlns:xlink="http://www.w3.org/1999/xlink" x="0px" y="0px"
	 viewBox="0 0 100 100" style="enable-background:new 0 0 100 100;" xml:space="preserve">
<style type="text/css">
	.st0{display:none;}
	.st1{display:inline;}
	.st2{fill:#ED99FD;}
	.st3{display:inline;fill:#ED99FD;}
</style>
<g class="st0">
	<g class="st1">
		<path class="st2" d="M50,16.3c4.5,0,8.1-3.6,8.1-8.1S54.5,0,50,0s-8.1,3.6-8.1,8.1S45.5,16.3,50,16.3L50,16.3z"/>
		<path class="st2" d="M58.1,17.4h-0.8L52,29.8l-0.6-7.6l1.5-1.5L50,17.8l-2.9,2.9l1.5,1.5L48,29.8l-5.4-12.3h-0.8
			c-5.8,0-10.5,4.7-10.5,10.5l0,0v28.3c0,3.9,2.2,7.5,5.7,9.3v29.1L33.4,98v2h16V66.1h1.2V100h15.9v-2l-3.7-3.4V65.5
			c3.6-1.7,5.9-5.4,5.9-9.4V27.9C68.6,22.1,63.9,17.4,58.1,17.4L58.1,17.4z"/>
	</g>
</g>
<g class="st0">
	<path class="st3" d="M37.1,15.2c1.3,5.7,2,11.4,2.6,17.2c0.6,5.7,1,11.5,1.2,17.2s0.3,11.5,0.1,17.2c-0.2,5.8-0.5,11.5-1.3,17.3
		c-1.3-5.7-2-11.4-2.6-17.2c-0.6-5.7-1-11.5-1.2-17.2s-0.3-11.5-0.1-17.2C35.9,26.8,36.2,21,37.1,15.2z"/>
	<path class="st3" d="M59.4,15.9c1.4,5.7,2.2,11.4,2.9,17.1s1.2,11.5,1.5,17.2c0.3,5.7,0.5,11.5,0.4,17.3s-0.3,11.5-1,17.3
		c-1.4-5.7-2.2-11.4-3-17.1C59.5,62,59,56.2,58.7,50.5S58.2,39,58.3,33.2C58.5,27.4,58.7,21.7,59.4,15.9z"/>
</g>
<path d="M69.8,42c-2.4,0-4.5,1.1-5.9,2.8H61v4c-0.4-0.2-0.9-0.4-1.6-0.4c-0.9,0-1.5,0.2-1.9,0.6c-0.4-0.4-1-0.6-1.9-0.6
	c-0.8,0-1.5,0.2-1.9,0.6c-0.4-0.4-1-0.6-1.9-0.6c-0.8,0-1.5,0.2-1.9,0.6c-0.4-0.4-1-0.6-1.9-0.6c-0.8,0-1.5,0.2-1.9,0.6
	c-0.4-0.4-1-0.6-1.9-0.6c-0.8,0-1.5,0.2-1.9,0.6c-0.3-0.3-1-0.6-1.8-0.6c-0.6,0-1.2,0.2-1.6,0.4v-4.1h-2.9c-1.4-1.7-3.5-2.7-5.9-2.8
	c-4.2,0-7.7,3.5-7.7,7.7s3.5,7.7,7.7,7.7c2.4,0,4.5-1.1,5.9-2.8h2.9v-4.1c0.4,0.2,0.9,0.4,1.6,0.4c0.9,0,1.5-0.2,1.9-0.6
	c0.4,0.4,1,0.6,1.9,0.6s1.5-0.2,1.9-0.6c0.4,0.4,1,0.6,1.9,0.6c0.9,0,1.5-0.2,1.9-0.6c0.4,0.4,1,0.6,1.9,0.6c0.9,0,1.5-0.2,1.9-0.6
	c0.4,0.4,1,0.6,1.9,0.6c0.9,0,1.5-0.2,1.9-0.6c0.4,0.4,1,0.6,1.9,0.6c0.6,0,1.2-0.2,1.6-0.4v4H64c1.4,1.7,3.5,2.8,5.9,2.8
	c4.2,0,7.7-3.5,7.7-7.7C77.5,45.4,74.1,42,69.8,42z M35.5,49.6c0,3-2.4,5.3-5.4,5.3s-5.3-2.4-5.3-5.4c0-3,2.4-5.3,5.4-5.3
	C33.1,44.2,35.6,46.7,35.5,49.6z M42.2,49.6c0,0.2-0.6,0.6-1.6,0.6c-0.9,0-1.6-0.4-1.6-0.6s0.6-0.6,1.6-0.6
	C41.6,49,42.2,49.3,42.2,49.6z M46,49.6c0,0.2-0.6,0.6-1.6,0.6c-0.9,0-1.6-0.4-1.6-0.6s0.6-0.6,1.6-0.6S46,49.3,46,49.6z M49.7,49.7
	c0,0.2-0.6,0.6-1.6,0.6c-0.9,0-1.6-0.4-1.6-0.6s0.6-0.6,1.6-0.6C49.1,49,49.7,49.3,49.7,49.7z M53.5,49.7c0,0.2-0.6,0.6-1.6,0.6
	c-0.9,0-1.6-0.4-1.6-0.6S51,49,51.9,49C52.8,49,53.5,49.3,53.5,49.7z M57.2,49.7c0,0.2-0.6,0.6-1.6,0.6c-0.9,0-1.6-0.4-1.6-0.6
	s0.6-0.6,1.6-0.6C56.6,49,57.2,49.3,57.2,49.7z M60.9,49.7c0,0.2-0.6,0.6-1.6,0.6c-0.9,0-1.6-0.4-1.6-0.6s0.6-0.6,1.6-0.6
	C60.4,49,60.9,49.3,60.9,49.7z M75.2,49.7c0,3-2.4,5.3-5.4,5.3c-3,0-5.3-2.4-5.3-5.4s2.4-5.3,5.4-5.3S75.2,46.7,75.2,49.7z"/>
</svg>
