<?xml version="1.0" encoding="utf-8"?>
<!-- Generator: Adobe Illustrator 24.3.0, SVG Export Plug-In . SVG Version: 6.00 Build 0)  -->
<svg version="1.1" id="Capa_1" xmlns="http://www.w3.org/2000/svg" xmlns:xlink="http://www.w3.org/1999/xlink" x="0px" y="0px"
	 viewBox="0 0 100 100" style="enable-background:new 0 0 100 100;" xml:space="preserve">
<style type="text/css">
	.st0{fill:#875CC3;}
</style>
<g>
	<path class="st0" d="M30,25.1c0.9,4.1,1.4,8.2,1.8,12.3c0.3,4.1,0.5,8.2,0.6,12.3c0.1,4.1-0.1,8.3-0.3,12.3
		c-0.3,4.1-0.7,8.3-1.5,12.4c-0.9-4.1-1.4-8.2-1.8-12.3s-0.5-8.2-0.6-12.3c-0.1-4.1,0.1-8.3,0.3-12.3C28.9,33.3,29.2,29.2,30,25.1z"
		/>
	<path class="st0" d="M40.6,26.2c1,3.9,1.5,7.8,1.9,11.7c0.4,4,0.7,7.8,0.8,11.8c0.1,4,0,7.8-0.2,11.8c-0.3,4-0.6,7.8-1.4,11.8
		c-1-3.9-1.5-7.8-1.9-11.7c-0.4-4-0.7-7.8-0.8-11.8s0-7.8,0.2-11.8C39.4,34.1,39.7,30.1,40.6,26.2z"/>
	<path class="st0" d="M50.4,20.7c1.1,4.8,1.7,9.6,2.2,14.5c0.5,4.8,0.8,9.7,1,14.5c0.2,4.8,0.3,9.7,0.1,14.5
		c-0.2,4.9-0.4,9.7-1.1,14.6c-1.1-4.8-1.7-9.6-2.2-14.5c-0.5-4.8-0.8-9.7-1-14.5c-0.2-4.8-0.3-9.7-0.1-14.5
		C49.4,30.5,49.7,25.6,50.4,20.7z"/>
	<path class="st0" d="M61.9,24c0.9,3.8,1.4,7.7,1.8,11.5s0.5,7.7,0.6,11.5c0.1,3.9-0.1,7.7-0.3,11.5s-0.7,7.7-1.5,11.5
		c-0.9-3.8-1.4-7.7-1.8-11.5s-0.5-7.7-0.6-11.5c-0.1-3.9,0.1-7.7,0.3-11.5C60.7,31.6,61.1,27.9,61.9,24z"/>
	<path class="st0" d="M73.5,21.3c1.2,4.8,1.9,9.6,2.4,14.4c0.6,4.8,1,9.7,1.3,14.5c0.3,4.8,0.4,9.7,0.3,14.6
		c-0.1,4.9-0.3,9.7-0.8,14.6c-1.2-4.8-1.9-9.6-2.5-14.4c-0.6-4.8-1-9.7-1.3-14.5s-0.4-9.7-0.3-14.6C72.6,31,72.8,26.2,73.5,21.3z"/>
	<path class="st0" d="M20.9,26.4c0.8,3.8,1.3,7.6,1.5,11.4s0.3,7.6,0.3,11.4c-0.1,3.8-0.3,7.6-0.6,11.4c-0.3,3.8-0.8,7.6-1.8,11.4
		c-0.8-3.8-1.3-7.6-1.5-11.4c-0.3-3.8-0.3-7.6-0.3-11.4c0.1-3.8,0.3-7.6,0.6-11.4C19.5,34,20,30.2,20.9,26.4z"/>
	<path class="st0" d="M11,63.6c6.4-3.3,12.9-6.1,19.5-8.9c6.6-2.8,13.1-5.3,19.9-7.7c6.7-2.4,13.4-4.7,20.1-6.9
		c6.7-2.2,13.6-4.2,20.5-5.8c-6.4,3.3-12.9,6.1-19.5,8.9c-6.6,2.7-13.1,5.3-19.9,7.7c-6.6,2.5-13.3,4.8-20.1,7
		C24.8,59.9,18,62,11,63.6z"/>
</g>
</svg>
