<?xml version="1.0" encoding="utf-8"?>
<!-- Generator: Adobe Illustrator 24.3.0, SVG Export Plug-In . SVG Version: 6.00 Build 0)  -->
<svg version="1.1" id="Capa_1" xmlns="http://www.w3.org/2000/svg" xmlns:xlink="http://www.w3.org/1999/xlink" x="0px" y="0px"
	 viewBox="0 0 100 100" style="enable-background:new 0 0 100 100;" xml:space="preserve">
<style type="text/css">
	.st0{fill:#875CC3;}
</style>
<g>
	<g>
		<path class="st0" d="M50,23c3.6,0,6.5-2.9,6.5-6.5S53.6,10,50,10s-6.5,2.9-6.5,6.5S46.4,23,50,23L50,23z"/>
		<path class="st0" d="M56.5,24h-0.6l-4.3,9.9l-0.4-6.1l1.2-1.2L50,24.2l-2.3,2.3l1.2,1.2l-0.5,6.1L44.1,24h-0.6
			c-4.6,0-8.4,3.7-8.4,8.4l0,0V55c0,3.1,1.8,6,4.6,7.4v23.2l-3,2.8V90h12.8V62.9h0.9V90h12.7v-1.6l-3-2.8V62.4
			c2.9-1.4,4.7-4.3,4.7-7.5V32.3C64.9,27.7,61.1,24,56.5,24L56.5,24z"/>
	</g>
</g>
</svg>
