<?xml version="1.0" encoding="utf-8"?>
<!-- Generator: Adobe Illustrator 24.3.0, SVG Export Plug-In . SVG Version: 6.00 Build 0)  -->
<svg version="1.1" id="Capa_1" xmlns="http://www.w3.org/2000/svg" xmlns:xlink="http://www.w3.org/1999/xlink" x="0px" y="0px"
	 viewBox="0 0 100 100" style="enable-background:new 0 0 100 100;" xml:space="preserve">
<style type="text/css">
	.st0{display:none;}
	.st1{display:inline;}
	.st2{fill:#ED99FD;}
</style>
<g class="st0">
	<g class="st1">
		<path class="st2" d="M50,16.3c4.5,0,8.1-3.6,8.1-8.1S54.5,0,50,0s-8.1,3.6-8.1,8.1S45.5,16.3,50,16.3L50,16.3z"/>
		<path class="st2" d="M58.1,17.4h-0.8L52,29.8l-0.6-7.6l1.5-1.5L50,17.8l-2.9,2.9l1.5,1.5L48,29.8l-5.4-12.3h-0.8
			c-5.8,0-10.5,4.7-10.5,10.5l0,0v28.3c0,3.9,2.2,7.5,5.7,9.3v29.1L33.4,98v2h16V66.1h1.2V100h15.9v-2l-3.7-3.4V65.5
			c3.6-1.7,5.9-5.4,5.9-9.4V27.9C68.6,22.1,63.9,17.4,58.1,17.4L58.1,17.4z"/>
	</g>
</g>
<g>
	<path class="st2" d="M38.9,20c1.1,4.9,1.7,9.8,2.2,14.8c0.5,4.9,0.9,9.9,1,14.8c0.2,4.9,0.3,9.9,0.1,14.8c-0.2,5-0.4,9.9-1.1,14.9
		c-1.1-4.9-1.7-9.8-2.2-14.8c-0.5-4.9-0.9-9.9-1-14.8c-0.2-4.9-0.3-9.9-0.1-14.8C37.8,30,38.1,25,38.9,20z"/>
	<path class="st2" d="M58.1,20.6c1.2,4.9,1.9,9.8,2.5,14.7c0.6,4.9,1,9.9,1.3,14.8s0.4,9.9,0.3,14.9c-0.1,5-0.3,9.9-0.9,14.9
		c-1.2-4.9-1.9-9.8-2.6-14.7c-0.6-4.9-1-9.9-1.3-14.8c-0.3-4.9-0.4-9.9-0.3-14.9C57.3,30.5,57.5,25.6,58.1,20.6z"/>
</g>
</svg>
