<?xml version="1.0" encoding="utf-8"?>
<!-- Generator: Adobe Illustrator 24.3.0, SVG Export Plug-In . SVG Version: 6.00 Build 0)  -->
<svg version="1.1" id="Capa_1" xmlns="http://www.w3.org/2000/svg" xmlns:xlink="http://www.w3.org/1999/xlink" x="0px" y="0px"
	 viewBox="0 0 100 100" style="enable-background:new 0 0 100 100;" xml:space="preserve">
<style type="text/css">
	.st0{fill:#ED99FD;}
</style>
<g>
	<g>
		<path class="st0" d="M50,23c3.6,0,6.5-2.9,6.5-6.5c0-3.6-2.9-6.5-6.5-6.5c-3.6,0-6.5,2.9-6.5,6.5v0C43.5,20.1,46.4,23,50,23z"/>
		<path class="st0" d="M57.6,66.9h9.3l-4-10.4c0.1-0.4,0.1-0.9,0.1-1.3v-23c0-4.5-3.7-8.2-8.2-8.2h-0.6l-0.2,0.6L50,33.8L45.8,24
			h-0.6c-4.5,0-8.2,3.7-8.2,8.2v23c0,0.5,0,0.9,0.1,1.4L33,66.9h9.3v18.8l-4.4,2.7V90h24.2v-1.6l-4.4-2.7L57.6,66.9z"/>
	</g>
</g>
</svg>
