<?xml version="1.0" encoding="utf-8"?>
<!-- Generator: Adobe Illustrator 24.3.0, SVG Export Plug-In . SVG Version: 6.00 Build 0)  -->
<svg version="1.1" id="Capa_1" xmlns="http://www.w3.org/2000/svg" xmlns:xlink="http://www.w3.org/1999/xlink" x="0px" y="0px"
	 viewBox="0 0 53 35" style="enable-background:new 0 0 53 35;" xml:space="preserve">
<style type="text/css">
	.st0{display:none;}
	.st1{display:inline;fill:#1A1AFF;}
	.st2{fill-rule:evenodd;clip-rule:evenodd;fill:#FF1E1E;}
	.st3{fill:#FF1A1A;}
</style>
<g class="st0">
	<path class="st1" d="M18.24,0c-0.07,0-0.14,0-0.2,0c-0.34,0.01-0.68,0.02-1.02,0.04c-0.11,0.01-0.21,0.02-0.31,0.02
		c-0.29,0.02-0.58,0.05-0.86,0.09c-0.16,0.02-0.32,0.04-0.47,0.06c-0.19,0.03-0.38,0.06-0.57,0.09c-0.12,0.02-0.24,0.03-0.36,0.06
		c-0.51,0.1-1.02,0.22-1.53,0.35C6.19,2.52,1.21,7.47,0.22,14.16c-0.6,4.06,0.02,8.6,2.06,12.23c0.4,0.71,0.85,1.39,1.35,2.03
		c0.6,0.76,1.28,1.47,2.02,2.1c0.54,0.46,1.66,1.52,2.47,1.32c0.71-0.18,0.37-1.26,0.24-1.75c-0.95-3.63-2.56-7.01-2.65-10.83
		c-0.06-2.67,0.57-5.37,1.98-7.68c2.37-3.87,6.99-6.12,11.59-6.49c0.01,0,0.02,0,0.03,0c0.25-0.02,0.5-0.03,0.75-0.04
		c0.02,0,0.05,0,0.07,0c0.22-0.01,0.44,0,0.65,0c5.05,0.13,9.28,2.86,11.33,5.26c0.04,0.05,0.09,0.11,0.14,0.17
		c0.26,0.31,0.31,0.34,0.61,0.77c0.13,0.19,0.41,0.22,0.59,0.07c7.19-6.29,14.82-6.17,18.19-5.83c0.41,0.04,0.59-0.48,0.24-0.69
		c-6.37-3.72-13.34-2.35-18.14,1.8c-0.19,0.16-0.47,0.12-0.6-0.08c-2.89-4.36-8.23-6.25-13.7-6.5c-0.03,0-0.06,0-0.08,0
		C19.06,0.01,18.75,0,18.44,0C18.37,0,18.31,0,18.24,0"/>
	<path class="st1" d="M20.72,16.32c0.72-0.2,1.77-0.32,2.38-0.32c2.67,0,3.8,1.32,3.8,4.41c0,3.03-1.2,4.56-3.58,4.56
		c-0.86,0-1.69-0.1-2.6-0.32V16.32z M23.72,11.98c-2.73,0-5.35,0.45-7.18,1.25c-0.59,0.3-0.69,0.54-0.69,1.02V34.4
		c0,0.51,0.23,0.6,0.76,0.6h3.36c0.64,0,0.76-0.09,0.76-0.6v-5.78c1.32,0.26,2.26,0.35,3.57,0.35c5.66,0,7.67-4.38,7.67-8.48
		C31.97,16.61,30.54,11.98,23.72,11.98"/>
	<path class="st1" d="M38.06,16.32c0.72-0.2,1.77-0.32,2.38-0.32c2.67,0,3.8,1.32,3.8,4.41c0,3.03-1.2,4.56-3.58,4.56
		c-0.86,0-1.69-0.1-2.6-0.32V16.32z M41.05,11.98c-2.73,0-5.35,0.45-7.18,1.25c-0.59,0.3-0.69,0.54-0.69,1.02V34.4
		c0,0.51,0.23,0.6,0.76,0.6h3.36c0.64,0,0.76-0.09,0.76-0.6v-5.78c1.32,0.26,2.26,0.35,3.57,0.35c5.66,0,7.67-4.38,7.67-8.48
		C49.3,16.61,47.87,11.98,41.05,11.98"/>
</g>
<g>
	<g>
		<path class="st2" d="M5.96,31.83c0.15,0.74,0.34,1.15,0.75,1.69c0.65,0.84,1.28,1.15,2.2,1.1h12.27c1.06-0.11,1.83-1.04,2-2.4
			c0.1-0.84-0.01-1.43-0.39-2.12c0.9-0.02,1.6-0.83,1.73-1.99c0.11-1.03-0.23-1.89-0.95-2.37c0.58-0.43,0.87-1.07,0.85-1.95
			c-0.02-0.89-0.35-1.54-0.98-1.9c0.64-0.45,0.95-1.17,0.91-2.12c-0.03-0.87-0.32-1.48-0.91-1.9c0.28-0.32,0.42-0.54,0.59-0.97
			c0.17-0.43,0.23-0.71,0.26-1.18V13.4h-1.69c0.79-0.62,1.19-1.24,1.5-2.37c0.38-1.37,0.33-2.43-0.2-3.72
			c0.41-1.51,0.31-2.73-0.35-4.09c-1.02-2.11-4.29-1.81-4.76-1.67c-1.38-0.94-2.32-1.23-3.88-1.18c-1.5,0.04-2.4,0.36-3.72,1.31
			c-0.42-0.47-3.49-0.38-4.46,1.6c-0.7,1.43-0.76,2.8-0.2,4.32c-0.55,1.1-0.66,2.08-0.36,3.34c0.29,1.21,1.01,1.92,1.65,2.44
			L5.98,13.4v2.41c0.06,0.5,0.15,0.79,0.36,1.23c0.18,0.38,0.32,0.57,0.59,0.85c-0.32,0.28-0.49,0.5-0.68,0.93
			c-0.17,0.36-0.24,0.6-0.29,1.02l-5.57,0.04l0,11.96L5.96,31.83L5.96,31.83z M20.89,33.11h-5.36c-0.5-0.06-0.87-0.6-0.87-1.26
			c0.01-0.67,0.43-1.21,0.95-1.22h2.62v0h2.62c0.5,0.11,0.83,0.65,0.81,1.3C21.66,32.54,21.35,32.99,20.89,33.11z M23.05,27.93
			c-0.03,0.66-0.43,1.17-0.94,1.18h-6.45c-0.56,0.06-1.06-0.55-1.04-1.27c0.01-0.7,0.48-1.25,1.01-1.22l3.29-0.01h3.16
			C22.62,26.61,23.08,27.22,23.05,27.93z M18.65,19.07c-0.05-0.12-0.13-0.23-0.23-0.31v0h3.48c0.52-0.03,0.96,0.48,0.99,1.16
			c0.03,0.7-0.41,1.31-0.94,1.31l-3.18,0l-0.01-1.65C18.76,19.4,18.73,19.23,18.65,19.07z M22.95,24.02
			c-0.03,0.59-0.35,1.03-0.81,1.1h-3.29l0-2.37h3.16C22.54,22.72,22.98,23.33,22.95,24.02z M22.91,14.78L22.91,14.78L22.91,14.78
			c0.01,0,0,1.28,0,1.32c-0.04,0.46-0.13,0.6-0.36,0.85c-0.2,0.22-0.36,0.3-0.62,0.31l-4.55,0.01v-1.55c0.1-0.3,0.21-0.46,0.41-0.65
			c0.22-0.2,0.38-0.27,0.65-0.29H22.91z M22.91,10.04c-0.12,1.51-0.81,2.27-1.91,2.98c-1.17,0.76-2.84,0.18-3.76,0.08v-0.77
			c1.27-0.18,2.14-1.06,2.6-2.61c0.43-1.44,0.29-2.68-0.41-3.91c0.8-0.03,1.31,0.15,1.98,0.73C22.41,7.41,23.03,8.49,22.91,10.04z
			 M15.7,13.28C15.68,13.28,15.68,13.28,15.7,13.28c0,0,0.01,0,0.02-0.01c0,0,0,0,0,0c0,0,0,0,0,0c0.01,0,0.01,0,0.02-0.01
			c0.02-0.01,0.04-0.02,0.05-0.02c-0.01,0-0.02,0.01-0.02,0.01c0.01,0,0.02-0.01,0.03-0.01c0.01,0,0.01-0.01,0.02-0.01
			c0,0,0,0-0.01,0c0,0,0.01,0,0.01,0l0.01,4.05H14.9c-0.1-0.04-0.16-0.08-0.24-0.17c-0.1-0.12-0.14-0.21-0.18-0.38l0-2.61
			c0.21-0.2,0.33-0.3,0.56-0.46c0.21-0.15,0.43-0.28,0.66-0.38c0,0,0,0,0,0C15.71,13.27,15.7,13.27,15.7,13.28z M14.08,11.35
			c-1.21-0.46-2.35-1.2-2.39-2.84c-0.03-1.28,0.43-2.27,1.33-2.8C13.01,5.71,13,5.71,13,5.71c0.01-0.01,0.01-0.01,0.01-0.01
			c0.17,1.28,0.45,2.03,1.12,2.99c0.91,1.31,1.78,1.85,3.13,1.96C16.24,11.6,15.29,11.81,14.08,11.35z M12.63,5.93
			c0.01,0,0.01-0.01,0.02-0.01C12.64,5.92,12.64,5.93,12.63,5.93z M12.92,5.76c0.02-0.01,0.05-0.03,0.08-0.05
			C12.98,5.72,12.95,5.74,12.92,5.76z M15.14,7.66c0,0,0.01,0.01,0.01,0.02c0.04,0.05,0.07,0.09,0.09,0.13
			c0.01,0.01,0.02,0.02,0.03,0.03c-0.01-0.01-0.02-0.02-0.03-0.03c-0.04-0.05-0.07-0.1-0.09-0.13C15.15,7.67,15.15,7.67,15.14,7.66
			c0.58,0.06,0.97-0.1,1.42-0.57c0.37-0.4,0.54-0.74,0.65-1.34c0.6,0.21,0.96,0.58,1.24,1.3c0.33,0.84,0.32,1.59-0.03,2.42
			c-0.68,0-1.08-0.09-1.71-0.42C16.02,8.68,15.65,8.36,15.14,7.66z M15.34,7.93C15.38,7.99,15.37,7.97,15.34,7.93L15.34,7.93z
			 M15.32,7.91c-0.01-0.01-0.02-0.02-0.03-0.04C15.31,7.89,15.32,7.9,15.32,7.91z M15.18,6.24c-0.4,0-0.72-0.29-0.72-0.65
			c0-0.36,0.32-0.65,0.72-0.65c0.4,0,0.72,0.29,0.72,0.65C15.91,5.95,15.58,6.24,15.18,6.24z M18.02,3.76
			c0.02-0.03,0.03-0.05,0.04-0.07c0.01-0.02,0.02-0.03,0.02-0.03c0,0-0.01,0.02-0.02,0.03C18.05,3.71,18.04,3.73,18.02,3.76
			c-0.01,0.02-0.03,0.05-0.05,0.09C17.99,3.81,18,3.78,18.02,3.76z M17.93,3.9c-0.01,0.02-0.03,0.05-0.04,0.07
			c-0.02,0.04-0.05,0.08-0.08,0.13c0.03-0.04,0.05-0.09,0.08-0.13C17.91,3.95,17.92,3.92,17.93,3.9z M17.72,4.27
			c0.01-0.01,0.02-0.03,0.03-0.04C17.73,4.24,17.72,4.26,17.72,4.27c-0.01,0.02-0.02,0.03-0.03,0.05
			C17.69,4.31,17.7,4.29,17.72,4.27z M21.32,3.17c0.88,0.52,1.35,1.22,1.63,2.42L22.5,5.86c-0.72-0.66-1.19-0.95-2.04-1.27
			c-1.04-0.39-1.7-0.45-2.78-0.27C18.58,2.83,19.99,2.38,21.32,3.17z M13.51,1.95c1.48-0.69,2.65-0.62,3.99,0.42
			C17.18,2.59,17,2.76,16.74,3.1c-0.16,0.21-0.25,0.33-0.38,0.57c-1.06-0.22-1.71-0.19-2.75,0.15c-1.17,0.38-1.83,0.82-2.75,1.84
			C11.31,3.78,12.08,2.62,13.51,1.95z M7.93,4.06c0.74-0.81,1.33-1.11,2.33-1.07C9.78,3.8,9.61,4.44,9.58,5.47
			c-0.02,1.1,0.15,1.8,0.65,2.69C9.08,8.24,8.31,7.78,7.75,6.78C7.27,5.92,7.3,4.74,7.93,4.06z M10.23,8.16c-0.01,0-0.02,0-0.03,0
			C10.21,8.16,10.22,8.16,10.23,8.16z M10.2,8.16c-0.02,0-0.03,0-0.05,0C10.17,8.16,10.18,8.16,10.2,8.16z M9.76,8.19
			c-0.01,0-0.02,0-0.03,0c-0.01,0-0.01,0,0,0C9.74,8.19,9.75,8.19,9.76,8.19z M7.41,9.25c0,0.02,0,0.03,0,0.04c0,0.02,0,0.03,0,0.04
			c0,0,0,0.01,0,0.01c0,0.01,0,0.02,0,0.02c0,0,0-0.01,0-0.02c0,0,0-0.01,0-0.01c0-0.01,0-0.02,0-0.04
			C7.41,9.27,7.41,9.26,7.41,9.25c0-0.01,0-0.03,0-0.05C7.41,9.22,7.41,9.23,7.41,9.25z M7.41,9.13c0-0.02,0-0.04,0-0.06
			C7.41,9.09,7.41,9.11,7.41,9.13z M7.41,9.01c0-0.05,0-0.1,0-0.15C7.42,8.92,7.42,8.97,7.41,9.01z M7.42,8.74c0-0.01,0-0.03,0-0.05
			c0-0.02,0-0.04,0-0.06c0-0.01,0-0.03,0-0.04c0-0.02,0-0.04,0-0.06c0,0.02,0,0.04,0,0.06c0,0.01,0,0.03,0,0.04
			c0,0.02,0,0.04,0,0.06C7.42,8.71,7.42,8.73,7.42,8.74z M7.43,8.47c0,0,0,0,0,0.01c0,0.01,0,0.02,0,0.03c0-0.01,0-0.02,0-0.03
			C7.43,8.47,7.43,8.47,7.43,8.47C7.43,8.47,7.43,8.47,7.43,8.47L7.43,8.47L7.43,8.47C7.99,9,8.39,9.23,9.08,9.39
			c0.49,0.11,0.78,0.13,1.27,0.04c0.36,0.94,0.68,1.44,1.33,2.07c0.75,0.73,1.31,1.02,2.25,1.15c-0.71,0.68-2.7,1.31-4.17,0.38
			C8.28,12.1,7.38,10.48,7.43,8.47z M7.46,14.78l4.56-0.01c0.25,0.01,0.41,0.1,0.61,0.31c0.22,0.24,0.28,0.39,0.36,0.84
			c0,0,0,1.35,0,1.34h0v0H8.52c-0.27-0.03-0.43-0.1-0.65-0.31c-0.21-0.19-0.31-0.35-0.41-0.65V14.78z M7.66,19.17
			c0.17-0.26,0.33-0.38,0.59-0.42h7.99c0.29-0.01,0.49,0.07,0.72,0.31c0.25,0.26,0.36,0.52,0.39,0.93l-0.01,5.12l-1.46,0
			c-0.37,0.02-0.61-0.09-0.9-0.39c-0.29-0.3-0.42-0.59-0.48-1.07l0.01-2.39h-1.37v2.54c-0.04,0.43-0.16,0.7-0.42,0.97
			c-0.24,0.26-0.45,0.34-0.76,0.34l-3.34-0.01c-0.38,0-0.64-0.16-0.88-0.54c-0.19-0.28-0.25-0.52-0.27-0.89l-0.01-3.61
			C7.42,19.71,7.48,19.45,7.66,19.17z M1.77,30.32l0.01-9.1L6,21.22v2.25c0.03,0.77,0.17,1.25,0.53,1.86
			c0.52,0.88,1.1,1.27,1.95,1.3h3.57c0.4-0.05,0.63-0.12,1.01-0.3c0.19-0.09,0.3-0.15,0.48-0.27c-0.34,0.53-0.45,0.99-0.43,1.68
			c0.03,0.92,0.31,1.55,0.91,2.03c-0.57,0.41-0.86,0.98-0.91,1.82c-0.04,0.61,0.04,1.02,0.31,1.52h0l0,0v0H9.01
			c-0.49-0.01-0.8-0.17-1.17-0.59c-0.29-0.35-0.43-0.63-0.53-1.13v-1.07L1.77,30.32z"/>
		<path class="st3" d="M8.7,35c-0.91,0-1.6-0.38-2.28-1.25c-0.39-0.51-0.6-0.93-0.76-1.55H0l0-12.69l5.63-0.04
			c0.06-0.28,0.13-0.51,0.27-0.8c0.15-0.34,0.3-0.57,0.51-0.79C6.26,17.68,6.14,17.48,6,17.2c-0.23-0.46-0.32-0.79-0.39-1.34l0-2.82
			l1.28-0.01c-0.45-0.48-0.87-1.12-1.07-2C5.51,9.75,5.6,8.71,6.13,7.58C5.59,6.02,5.68,4.6,6.4,3.13c0.74-1.52,2.43-1.9,3.13-2
			c0.53-0.07,1.22-0.07,1.65,0.11c1.26-0.88,2.23-1.2,3.72-1.24c1.58-0.05,2.59,0.25,3.96,1.16c1-0.2,4.01-0.19,5.02,1.9
			c0.68,1.41,0.8,2.68,0.41,4.23c0.51,1.31,0.56,2.43,0.16,3.84c-0.23,0.82-0.51,1.4-0.93,1.9h1.14v2.69
			c-0.04,0.54-0.1,0.86-0.29,1.32c-0.13,0.33-0.25,0.56-0.41,0.79c0.49,0.47,0.74,1.11,0.77,1.94c0.03,0.87-0.21,1.59-0.7,2.1
			c0.48,0.45,0.74,1.1,0.76,1.92c0.02,0.81-0.2,1.46-0.65,1.94c0.58,0.58,0.85,1.44,0.75,2.42c-0.12,1.11-0.73,1.96-1.55,2.23
			c0.24,0.58,0.3,1.16,0.22,1.88c-0.18,1.53-1.1,2.6-2.32,2.72l-12.3,0C8.84,35,8.77,35,8.7,35z M0.73,31.46h5.53l0.06,0.29
			c0.14,0.69,0.3,1.05,0.69,1.55c0.58,0.74,1.08,1.01,1.88,0.96l12.29,0c0.85-0.09,1.49-0.88,1.63-2.08c0.09-0.76,0-1.27-0.35-1.89
			l-0.3-0.53l0.61-0.01c0.7-0.02,1.27-0.7,1.37-1.66c0.09-0.9-0.18-1.62-0.79-2.03l-0.43-0.29l0.42-0.31
			c0.49-0.36,0.71-0.89,0.7-1.64c-0.02-0.76-0.28-1.3-0.8-1.59l-0.49-0.29l0.47-0.33c0.53-0.38,0.79-0.98,0.76-1.8
			c-0.03-0.76-0.26-1.26-0.76-1.62l-0.33-0.24l0.27-0.31c0.25-0.28,0.37-0.48,0.52-0.86c0.15-0.39,0.21-0.63,0.24-1.08l0-1.94h-2.39
			l0.83-0.66c0.72-0.57,1.08-1.14,1.37-2.18c0.36-1.3,0.31-2.27-0.18-3.49l-0.05-0.11l0.03-0.12c0.39-1.44,0.3-2.54-0.33-3.83
			c-0.93-1.92-4-1.58-4.32-1.48l-0.17,0.05l-0.15-0.1c-1.31-0.89-2.19-1.16-3.66-1.12c-1.44,0.04-2.25,0.33-3.51,1.24l-0.27,0.2
			l-0.22-0.25c-0.1-0.08-0.76-0.21-1.67,0c-0.6,0.14-1.69,0.52-2.18,1.52C6.41,4.77,6.35,6.06,6.87,7.48l0.05,0.15L6.86,7.77
			C6.35,8.8,6.25,9.69,6.53,10.86c0.26,1.11,0.92,1.75,1.53,2.24l0.81,0.65l-2.52,0.01v2.05c0.06,0.42,0.13,0.67,0.32,1.07
			c0.17,0.34,0.28,0.5,0.52,0.75l0.27,0.28l-0.29,0.26c-0.29,0.26-0.42,0.44-0.59,0.81c-0.15,0.33-0.21,0.54-0.26,0.91L6.26,20.2
			l-5.53,0.04L0.73,31.46z M14.04,33.48H9.01c-0.6-0.01-1.02-0.22-1.45-0.72c-0.34-0.4-0.5-0.74-0.61-1.3l0-0.77l-5.54,0.01
			l0.01-9.83l4.95-0.01v2.62c0.03,0.7,0.15,1.11,0.48,1.67c0.46,0.78,0.93,1.09,1.65,1.12h3.55c0.31-0.05,0.51-0.1,0.85-0.26
			c0.17-0.08,0.27-0.13,0.43-0.24l1.3-0.85c-0.3-0.34-0.44-0.68-0.51-1.2l0.01-2.07h-0.63v2.17c-0.05,0.55-0.21,0.89-0.52,1.23
			c-0.31,0.33-0.61,0.44-1.04,0.45l-3.33-0.01c-0.51-0.01-0.87-0.22-1.19-0.71c-0.22-0.34-0.31-0.63-0.33-1.07l-0.01-3.63
			c-0.04-0.41,0.04-0.75,0.26-1.09l0,0c0.23-0.35,0.48-0.53,0.85-0.58l8.04,0c0.4-0.01,0.68,0.11,0.98,0.43
			c0.31,0.33,0.45,0.66,0.49,1.15l-0.01,5.52l-1.83,0c-0.44,0.03-0.8-0.12-1.16-0.5c-0.01-0.01-0.02-0.02-0.03-0.04l-0.83,1.32
			c-0.29,0.47-0.39,0.85-0.37,1.47c0.02,0.81,0.26,1.33,0.78,1.75l0.38,0.3l-0.39,0.28c-0.48,0.35-0.71,0.81-0.76,1.54
			c-0.04,0.55,0.03,0.88,0.27,1.32L14.04,33.48z M7.68,29.95v1.44c0.08,0.37,0.18,0.59,0.44,0.89c0.29,0.35,0.51,0.46,0.89,0.47
			h3.85c-0.12-0.36-0.15-0.72-0.12-1.17c0.05-0.78,0.28-1.36,0.73-1.81c-0.47-0.51-0.7-1.16-0.73-2.01
			c-0.01-0.35,0.01-0.64,0.08-0.92c-0.22,0.08-0.43,0.13-0.72,0.16l-3.62,0c-0.99-0.04-1.68-0.5-2.27-1.48
			c-0.4-0.66-0.55-1.2-0.59-2.03v-1.9l-3.48,0.01l-0.01,8.36L7.68,29.95z M12.78,20.9h2.1l-0.01,2.76c0.05,0.35,0.14,0.57,0.38,0.81
			c0.24,0.25,0.38,0.29,0.61,0.28l1.11,0L16.98,20c-0.02-0.29-0.1-0.47-0.29-0.68c-0.17-0.18-0.26-0.2-0.43-0.2h-8
			c-0.08,0.02-0.16,0.06-0.29,0.25c-0.13,0.21-0.17,0.38-0.15,0.66l0.01,3.64c0.02,0.29,0.07,0.46,0.22,0.69
			c0.2,0.31,0.36,0.37,0.58,0.37l3.34,0.01c0.2,0,0.3-0.02,0.49-0.22c0.21-0.22,0.29-0.41,0.32-0.76L12.78,20.9z M20.94,33.47h-5.4
			c-0.74-0.09-1.24-0.77-1.23-1.63c0.01-0.88,0.58-1.57,1.31-1.58h5.25c0.75,0.15,1.21,0.84,1.18,1.68
			c-0.03,0.77-0.44,1.36-1.06,1.52L20.94,33.47z M15.62,31c-0.31,0-0.57,0.39-0.58,0.85c0,0.46,0.23,0.85,0.54,0.89l5.26,0
			c0.27-0.09,0.45-0.41,0.47-0.82c0.02-0.47-0.2-0.86-0.52-0.93L15.62,31z M15.55,29.49c-0.26,0-0.54-0.11-0.77-0.33
			c-0.35-0.31-0.55-0.81-0.54-1.32c0.01-0.5,0.2-0.95,0.53-1.25c0.25-0.23,0.56-0.35,0.88-0.32l6.42-0.01
			c0.34-0.01,0.62,0.13,0.86,0.37c0.32,0.33,0.5,0.82,0.48,1.32c-0.03,0.86-0.59,1.52-1.3,1.54h-6.46
			C15.62,29.49,15.59,29.49,15.55,29.49z M15.59,27c-0.15,0-0.26,0.07-0.33,0.13c-0.18,0.16-0.28,0.43-0.29,0.72
			c0,0.3,0.11,0.6,0.3,0.77c0.07,0.07,0.2,0.15,0.34,0.13l6.49,0c0.3-0.01,0.56-0.37,0.58-0.83l0,0c0.01-0.3-0.09-0.59-0.27-0.78
			c-0.07-0.07-0.19-0.17-0.33-0.15L15.62,27C15.61,27,15.6,27,15.59,27z M18.85,25.48h-0.37l-0.01-3.11h3.53
			c0.29-0.03,0.6,0.11,0.84,0.36c0.32,0.32,0.49,0.8,0.47,1.3l0,0c-0.04,0.77-0.49,1.35-1.12,1.45L18.85,25.48z M19.21,24.75h2.93
			c0.22-0.04,0.42-0.34,0.44-0.75l0,0c0.01-0.28-0.08-0.57-0.26-0.74c-0.07-0.07-0.17-0.17-0.31-0.14h-2.81L19.21,24.75z
			 M21.94,21.59l-3.55,0l-0.01-2.01c0.01-0.14-0.01-0.25-0.06-0.35l-0.01-0.03c-0.02-0.06-0.07-0.12-0.12-0.16l-0.84-0.66h4.55
			c0.29-0.01,0.59,0.1,0.83,0.32c0.31,0.28,0.5,0.72,0.53,1.19c0.02,0.49-0.15,0.98-0.46,1.3C22.56,21.45,22.26,21.59,21.94,21.59z
			 M19.12,20.86l2.82,0c0.14,0,0.25-0.09,0.32-0.16c0.17-0.18,0.27-0.47,0.26-0.76c-0.01-0.28-0.12-0.53-0.28-0.68
			c-0.07-0.06-0.17-0.13-0.32-0.13l-2.85,0c0.04,0.15,0.06,0.31,0.05,0.48L19.12,20.86z M16.2,17.64l-7.68,0
			c-0.39-0.04-0.62-0.15-0.9-0.41c-0.25-0.24-0.39-0.45-0.51-0.8l-0.02-0.12v-1.9l4.93-0.01c0.37,0.02,0.61,0.14,0.88,0.43
			c0.28,0.31,0.36,0.53,0.45,1.03c0,0.14,0,0.75,0,1.12l0.95,0.24c-0.09-0.13-0.14-0.26-0.17-0.44l0-2.84l0.11-0.11
			c0.22-0.21,0.36-0.33,0.6-0.5c0.15-0.11,0.32-0.22,0.5-0.31l0-0.01l0.83-0.39l0,0.03l0.7-0.32v-0.32l0.31-0.05
			c1.13-0.16,1.88-0.93,2.3-2.35c0.4-1.35,0.28-2.47-0.38-3.63l-0.3-0.52l0.6-0.02c0.9-0.04,1.5,0.18,2.24,0.82
			c1.22,1.05,1.75,2.29,1.63,3.8c-0.13,1.67-0.93,2.52-2.08,3.26c-1.03,0.67-2.36,0.43-3.33,0.25c-0.25-0.05-0.48-0.09-0.67-0.11
			l-0.33-0.03v-0.77l-0.68,0.7L16.2,17.64z M14.99,16.91h0.47l-0.01-3.09c-0.06,0.04-0.13,0.08-0.19,0.12
			c-0.17,0.12-0.28,0.2-0.41,0.32l0,2.45c0.02,0.04,0.04,0.08,0.09,0.15C14.97,16.88,14.98,16.9,14.99,16.91z M7.82,16.25
			c0.08,0.2,0.15,0.31,0.3,0.45c0.17,0.16,0.26,0.19,0.44,0.21l4.06,0c0-0.23,0-0.54,0-0.97c-0.07-0.37-0.1-0.44-0.26-0.6
			c-0.14-0.16-0.22-0.19-0.36-0.19l-4.18,0.01V16.25z M17.61,12.79c0.13,0.02,0.26,0.04,0.4,0.07c0.89,0.16,2.01,0.37,2.8-0.14
			c1-0.65,1.64-1.33,1.75-2.71l0,0c0.1-1.27-0.34-2.28-1.38-3.18c-0.41-0.35-0.74-0.54-1.13-0.61c0.5,1.14,0.54,2.31,0.15,3.62
			c-0.46,1.57-1.33,2.51-2.58,2.81V12.79z M17.02,17.64l0.02-2.04c0.12-0.36,0.26-0.57,0.51-0.8c0.28-0.26,0.53-0.37,0.88-0.39
			l4.5,0l0.02,0c0.27,0.03,0.44,0.04,0.33,1.71c-0.04,0.54-0.17,0.76-0.45,1.07c-0.27,0.29-0.52,0.42-0.88,0.43L17.02,17.64z
			 M17.75,15.78v1.12l4.18-0.01c0.13,0,0.21-0.03,0.35-0.19c0.17-0.18,0.23-0.25,0.26-0.63c0-0.05,0-0.57,0-0.93h-4.1
			c-0.15,0.01-0.24,0.04-0.4,0.19C17.9,15.48,17.83,15.58,17.75,15.78z M11.47,13.86c-0.66,0-1.32-0.15-1.9-0.52
			c-1.4-0.88-2.27-2.31-2.46-3.98L7.04,9.35l0-0.13l0.04,0c0-0.01,0-0.01,0-0.02l-0.04,0h0.04c0-0.03,0-0.05-0.01-0.08l0.33,0.02
			L7.08,9.12c0,0,0,0,0,0l0.33,0.02L7.08,9.12c0-0.01,0-0.01,0-0.02l-0.03,0h0h0l0.03,0c0-0.03,0-0.06-0.01-0.09L7.05,9l0.02-0.14
			c0-0.04,0-0.09,0-0.13l0.12,0.01L7.06,8.72c0,0,0,0,0,0l-0.01,0l0.01,0c0,0,0-0.01,0-0.01l0,0l0-0.1c0-0.04,0-0.08,0-0.12h0
			l0-0.01c0,0,0-0.01,0-0.01l0.01-0.08l0.36-1.43C6.85,5.91,6.94,4.59,7.66,3.81l0,0C8.5,2.9,9.22,2.58,10.28,2.62l0.61,0.02
			l-0.31,0.53c-0.45,0.76-0.61,1.35-0.63,2.31c-0.02,1.03,0.13,1.66,0.6,2.5l0.29,0.51l-0.6,0.04c0,0-0.01,0-0.01,0l-0.05,0v0
			c-0.13,0.01-0.26,0.01-0.39,0l0,0.03L9.55,8.57L9.5,8.5c-0.67-0.1-1.23-0.42-1.68-0.97L7.8,8.31C8.26,8.73,8.59,8.9,9.17,9.03
			c0.45,0.11,0.69,0.11,1.12,0.03l0.3-0.05l0.11,0.28c0.34,0.89,0.63,1.34,1.24,1.94c0.7,0.69,1.18,0.93,2.04,1.05l0.76,0.1
			l-0.55,0.53C13.63,13.44,12.57,13.86,11.47,13.86z M7.83,9.27c0.17,1.46,0.92,2.69,2.13,3.46c0.98,0.62,2.21,0.45,3.03,0.09
			c-0.55-0.19-1.02-0.51-1.57-1.05c-0.63-0.61-0.97-1.11-1.31-1.93C9.74,9.87,9.43,9.85,9,9.75C8.53,9.64,8.18,9.5,7.83,9.27z
			 M7.86,6.06C7.9,6.25,7.98,6.43,8.07,6.6c0.4,0.71,0.88,1.08,1.56,1.18C9.31,7.07,9.2,6.39,9.22,5.47
			c0.02-0.84,0.14-1.45,0.42-2.09C9.12,3.47,8.71,3.75,8.2,4.3C7.92,4.61,7.78,5.06,7.79,5.53l0.09-0.38L7.86,6.06z M15.23,11.95
			c-0.41,0-0.83-0.09-1.29-0.26l0,0c-1.1-0.42-2.58-1.21-2.63-3.17c-0.03-1.23,0.37-2.23,1.13-2.86l-0.02-0.03l0.03-0.02l0.02,0.03
			c0.08-0.07,0.17-0.13,0.26-0.18l0,0l0,0l0,0l0,0l0.08-0.04l0,0l0.48-0.29l0.09,0.55c0.16,1.22,0.42,1.91,1.06,2.83
			c0.84,1.21,1.62,1.7,2.86,1.8l0.84,0.07l-0.62,0.57C16.77,11.61,16.03,11.95,15.23,11.95z M14.21,11
			c0.82,0.31,1.49,0.28,2.16-0.12c-1.01-0.26-1.77-0.87-2.54-1.97c-0.59-0.85-0.9-1.55-1.09-2.53c-0.48,0.49-0.72,1.22-0.7,2.12
			C12.08,9.69,12.73,10.44,14.21,11L14.21,11z M12.74,5.46l0.15,0.27L12.74,5.46z M18.38,9.83c-0.72,0-1.17-0.12-1.84-0.46
			c-0.56-0.29-0.93-0.57-1.31-1.01l-0.03,0l-0.15-0.21l0,0c0,0,0-0.01-0.01-0.01l0,0L15,8.09l0,0c0,0-0.01-0.01-0.01-0.01l0,0
			l-0.01-0.01v0l-0.58-0.8l0.78,0.03c0.46,0.05,0.74-0.07,1.11-0.46c0.32-0.35,0.46-0.63,0.56-1.16l0.08-0.42l0.4,0.14
			c0.7,0.25,1.14,0.7,1.46,1.52c0.37,0.93,0.36,1.79-0.03,2.7l-0.09,0.22l-0.24,0C18.41,9.83,18.39,9.83,18.38,9.83z M15.87,7.97
			c0.29,0.31,0.58,0.52,1.01,0.74c0.49,0.26,0.82,0.36,1.29,0.38c0.22-0.64,0.2-1.24-0.06-1.91c-0.18-0.45-0.37-0.73-0.65-0.91
			C17.33,6.69,17.14,7,16.83,7.34C16.52,7.67,16.21,7.88,15.87,7.97z M15.03,8.12L15.03,8.12L15.03,8.12
			C15.03,8.12,15.03,8.12,15.03,8.12z M15.16,8.03L15.16,8.03L15.16,8.03C15.16,8.03,15.16,8.03,15.16,8.03z M10.16,6.98l0.34-1.4
			c0.49-2.05,1.37-3.27,2.86-3.97h0c1.65-0.77,2.96-0.63,4.37,0.46l0.39,0.31l-0.41,0.28c-0.3,0.21-0.45,0.35-0.69,0.66
			c-0.15,0.19-0.23,0.31-0.35,0.53l-0.13,0.23l-0.26-0.05c-1-0.21-1.58-0.18-2.56,0.14C12.61,4.54,12,4.94,11.13,5.91L10.16,6.98z
			 M13.67,2.28c-0.93,0.43-1.57,1.1-2.02,2.12c0.53-0.41,1.09-0.68,1.84-0.93c1.01-0.33,1.7-0.39,2.68-0.21
			c0.08-0.13,0.16-0.25,0.28-0.39c0.16-0.2,0.29-0.35,0.44-0.49C15.86,1.72,14.92,1.7,13.67,2.28L13.67,2.28z M15.18,6.61
			c-0.6,0-1.09-0.46-1.09-1.02s0.49-1.02,1.09-1.02c0.6,0,1.09,0.46,1.09,1.02S15.79,6.61,15.18,6.61z M15.18,5.3
			c-0.19,0-0.36,0.13-0.36,0.28c0,0.15,0.16,0.29,0.36,0.29c0.19,0,0.36-0.13,0.36-0.29C15.54,5.44,15.38,5.3,15.18,5.3z
			 M22.45,6.32l-0.2-0.19c-0.69-0.63-1.12-0.89-1.92-1.19c-0.99-0.37-1.57-0.42-2.59-0.25l-0.79,0.14l0.41-0.69
			c0.01-0.01,0.02-0.02,0.02-0.04l0.04-0.07l0,0c0.02-0.04,0.05-0.08,0.07-0.11l-0.01,0l0.01,0c0,0,0,0,0,0l-0.01,0l0.01,0
			c0.03-0.04,0.05-0.08,0.08-0.11l-0.01-0.01l0.02,0l-0.01-0.01l0.02,0.01c0.03-0.04,0.06-0.08,0.09-0.12l-0.03-0.01l0.07-0.12
			l0.05,0.02c0.01-0.01,0.02-0.02,0.03-0.04l-0.05-0.03l0.05,0.03c1-1.17,2.39-1.44,3.7-0.66v0c0.96,0.57,1.5,1.37,1.79,2.65
			l0.06,0.26L22.45,6.32z M18.7,3.86c0.61,0,1.17,0.12,1.89,0.39c0.8,0.3,1.28,0.58,1.92,1.13c-0.26-0.92-0.66-1.46-1.38-1.89l0,0
			c-0.93-0.55-1.89-0.4-2.64,0.37C18.56,3.86,18.63,3.86,18.7,3.86z"/>
	</g>
</g>
</svg>
